<svg width="24" height="24" viewBox="0 0 24 24" fill="none" xmlns="http://www.w3.org/2000/svg">
  <g clip-path="url(#clip0_1_24209)">
    <circle cx="12" cy="12" r="12" fill="#F6F6F6" />
    <path
      d="M18.64 12.1572C18.64 11.6963 18.5992 11.2588 18.5292 10.833H11.9375V13.4638H15.7117C15.5425 14.3272 15.0467 15.0563 14.3117 15.5522V17.3022H16.5633C17.8817 16.083 18.64 14.2863 18.64 12.1572Z"
      fill="#4285F4" />
    <path
      d="M11.9389 19.0001C13.8289 19.0001 15.4097 18.3701 16.5647 17.3026L14.3131 15.5526C13.6831 15.9726 12.8839 16.2293 11.9389 16.2293C10.1131 16.2293 8.56724 14.9984 8.01307 13.3359H5.69141V15.1384C6.84057 17.4251 9.20307 19.0001 11.9389 19.0001Z"
      fill="#34A853" />
    <path
      d="M8.01167 13.3355C7.86583 12.9155 7.79 12.4663 7.79 11.9997C7.79 11.533 7.87167 11.0838 8.01167 10.6638V8.86133H5.69C5.21167 9.80633 4.9375 10.868 4.9375 11.9997C4.9375 13.1313 5.21167 14.193 5.69 15.138L8.01167 13.3355Z"
      fill="#FBBC05" />
    <path
      d="M11.9389 7.77083C12.9714 7.77083 13.8931 8.12667 14.6222 8.82083L16.6172 6.82583C15.4097 5.69417 13.8289 5 11.9389 5C9.20307 5 6.84057 6.575 5.69141 8.86167L8.01307 10.6642C8.56724 9.00167 10.1131 7.77083 11.9389 7.77083Z"
      fill="#EA4335" />
  </g>
  <defs>
    <clipPath id="clip0_1_24209">
      <rect width="24" height="24" fill="white" />
    </clipPath>
  </defs>
</svg>