<svg viewBox="0 0 76 16" fill="none" xmlns="http://www.w3.org/2000/svg">
	<g clip-path="url(#clip0_316_648)">
		<path d="M5.17188 15C9.48828 15 12.0957 12.334 12.0859 7.91016C12.0957 3.50586 9.48828 0.859375 5.23047 0.859375H0.191406V15H5.17188ZM3.12109 12.4805V3.37891H5.07422C7.75 3.37891 9.15625 4.76562 9.15625 7.91016C9.15625 11.084 7.75 12.4805 5.05469 12.4805H3.12109ZM18.1609 15.2148C20.7781 15.2051 22.5359 13.9355 22.9461 11.9727H20.1922C19.909 12.6074 19.2059 13.0371 18.2195 13.0469C16.7254 13.0371 15.7781 12.0508 15.7781 10.4492H23.0242V9.62891C23.0242 6.01562 20.827 4.25781 18.0437 4.25781C14.9383 4.25781 12.9168 6.47461 12.9266 9.74609C12.9168 13.1055 14.909 15.2051 18.1609 15.2148ZM15.7781 8.63281C15.8367 7.41211 16.7742 6.41602 18.1023 6.42578C19.3914 6.41602 20.2801 7.34375 20.2898 8.63281H15.7781ZM33.5914 4.39453H30.525L28.2984 12.0117H28.1812L25.9547 4.39453H22.9078L26.6187 15H29.8609L33.5914 4.39453ZM38.6508 15.2148C41.268 15.2051 43.0258 13.9355 43.4359 11.9727H40.682C40.3988 12.6074 39.6957 13.0371 38.7094 13.0469C37.2152 13.0371 36.268 12.0508 36.268 10.4492H43.5141V9.62891C43.5141 6.01562 41.3168 4.25781 38.5336 4.25781C35.4281 4.25781 33.4066 6.47461 33.4164 9.74609C33.4066 13.1055 35.3988 15.2051 38.6508 15.2148ZM36.268 8.63281C36.3266 7.41211 37.2641 6.41602 38.5922 6.42578C39.8812 6.41602 40.7699 7.34375 40.7797 8.63281H36.268ZM47.4211 0.859375H44.5305V15H47.4211V0.859375ZM53.6719 15.2148C56.2891 15.2051 58.0469 13.9355 58.457 11.9727H55.7031C55.4199 12.6074 54.7168 13.0371 53.7305 13.0469C52.2363 13.0371 51.2891 12.0508 51.2891 10.4492H58.5352V9.62891C58.5352 6.01562 56.3379 4.25781 53.5547 4.25781C50.4492 4.25781 48.4277 6.47461 48.4375 9.74609C48.4277 13.1055 50.4199 15.2051 53.6719 15.2148ZM51.2891 8.63281C51.3477 7.41211 52.2852 6.41602 53.6133 6.42578C54.9023 6.41602 55.791 7.34375 55.8008 8.63281H51.2891ZM64.3172 15.2148C67.1297 15.2051 68.8973 13.5547 69.0242 11.1523H66.3094C66.1238 12.2754 65.3719 12.9102 64.3563 12.9102C62.95 12.9102 62.0516 11.7383 62.0516 9.6875C62.0516 7.67578 62.9695 6.51367 64.3563 6.50391C65.45 6.51367 66.1336 7.23633 66.3094 8.28125H69.0242C68.907 5.84961 67.0516 4.25781 64.3172 4.25781C61.1043 4.25781 59.1121 6.48438 59.1219 9.72656C59.1121 12.959 61.0652 15.2051 64.3172 15.2148ZM75.607 4.39453H73.6148V1.85547H70.7242V4.39453H69.2594V6.5625H70.7242V12.1484C70.7047 14.209 72.1305 15.1465 74.2203 15.1367C74.9332 15.1465 75.4508 15.0879 75.7633 15.0391V12.7539C75.4117 12.7832 74.9039 12.8125 74.6109 12.8125C74.025 12.793 73.6051 12.5879 73.6148 11.7383V6.5625H75.607V4.39453Z" fill="#333333" />
	</g>
	<defs>
		<clipPath id="clip0_316_648">
			<rect width="76" height="16" fill="white" />
		</clipPath>
	</defs>
</svg>
