<svg viewBox="0 0 16 16" fill="none" xmlns="http://www.w3.org/2000/svg">
  <path fill-rule="evenodd" clip-rule="evenodd"
    d="M1.52853 14.4714C1.26818 14.2111 1.26818 13.7889 1.52853 13.5286L13.5285 1.52866C13.7888 1.26831 14.2109 1.26831 14.4713 1.52866C14.7316 1.78901 14.7316 2.21112 14.4713 2.47147L2.47134 14.4714C2.21099 14.7318 1.78888 14.7318 1.52853 14.4714Z"
    fill="current" />
  <path fill-rule="evenodd" clip-rule="evenodd"
    d="M14.4714 14.471C14.2111 14.7313 13.7889 14.7313 13.5286 14.471L1.52866 2.47104C1.26831 2.21069 1.26831 1.78858 1.52866 1.52823C1.78901 1.26788 2.21112 1.26788 2.47147 1.52823L14.4714 13.5282C14.7318 13.7885 14.7318 14.2106 14.4714 14.471Z"
    fill="current" />
</svg>